<svg xmlns="http://www.w3.org/2000/svg" fill="none" viewBox="0 0 118 21">
  <path fill="#fff" d="M12.93 3.82H8.76C8.68 5.59 8.6 7.2 8.5 8.66c-.09 1.46-.22 2.77-.39 3.95a20.38 20.38 0 0 1-.61 3.08c-.27.9-.6 1.67-1.01 2.32-.26.43-.56.79-.9 1.07a4.31 4.31 0 0 1-2.07 1 4.4 4.4 0 0 1-2.04 0 3.7 3.7 0 0 1-.84-.28l.42-3.3a2.22 2.22 0 0 0 .67.11 1.84 1.84 0 0 0 1.62-.98c.28-.4.52-1 .73-1.79.2-.8.38-1.82.53-3.05.17-1.23.3-2.7.4-4.4.09-1.72.15-3.71.19-5.99h11.56V20h-3.83V3.82Zm6.58 6.38c0-3.27.72-5.78 2.16-7.53C23.1.89 25.16 0 27.83 0c1.4 0 2.62.24 3.66.73a6.91 6.91 0 0 1 2.6 2.07c.7.9 1.21 1.97 1.55 3.22.33 1.25.5 2.64.5 4.17 0 3.27-.73 5.79-2.18 7.56-1.44 1.75-3.48 2.63-6.13 2.63a8.7 8.7 0 0 1-3.7-.73 6.91 6.91 0 0 1-2.6-2.07A9.35 9.35 0 0 1 20 14.37c-.33-1.25-.5-2.64-.5-4.17Zm4.03 0c0 .99.09 1.9.25 2.74.17.83.42 1.53.76 2.13a3.59 3.59 0 0 0 3.28 1.9c1.36 0 2.41-.53 3.16-1.59s1.12-2.8 1.12-5.18c0-.95-.08-1.84-.25-2.66a7.15 7.15 0 0 0-.73-2.16 3.55 3.55 0 0 0-3.3-1.96 3.6 3.6 0 0 0-3.17 1.66c-.75 1.08-1.12 2.79-1.12 5.12Zm26.74-6.38h-7.56V20h-3.84V.4h11.4v3.42Zm.21 6.38c0-3.27.72-5.78 2.16-7.53C54.08.89 56.14 0 58.8 0c1.4 0 2.62.24 3.66.73a6.91 6.91 0 0 1 2.6 2.07c.7.9 1.21 1.97 1.55 3.22.33 1.25.5 2.64.5 4.17 0 3.27-.73 5.79-2.18 7.56-1.44 1.75-3.48 2.63-6.13 2.63a8.7 8.7 0 0 1-3.7-.73 6.9 6.9 0 0 1-2.6-2.07 9.35 9.35 0 0 1-1.52-3.22c-.33-1.25-.5-2.64-.5-4.17Zm4.03 0c0 .99.09 1.9.25 2.74.17.83.42 1.53.76 2.13a3.59 3.59 0 0 0 3.28 1.9c1.36 0 2.41-.53 3.16-1.59s1.12-2.8 1.12-5.18c0-.95-.08-1.84-.25-2.66a7.15 7.15 0 0 0-.73-2.16 3.55 3.55 0 0 0-3.3-1.96 3.6 3.6 0 0 0-3.17 1.66c-.74 1.08-1.12 2.79-1.12 5.12ZM82.7 3.82h-5.72V20h-3.83V3.82H67.4V.4h15.29v3.42ZM96.1 9.14l.22-2.55h-.14l-1.31 2.63L87.57 20h-2.89V.4h3.84v10.67l-.28 2.63h.17l1.37-2.72L97.08.4h2.86V20h-3.83V9.14Zm17.92-5.32h-6.86V20h-3.84V.4h14.53V20h-3.83V3.82Z"/>
</svg>
