<svg xmlns="http://www.w3.org/2000/svg">
  <symbol id="cart" viewBox="0 0 17 16">
    <path fill="currentColor" d="M16.3 2.91H3.01L2.81.65a.7.7 0 0 0-.7-.65H.7a.7.7 0 0 0-.7.72c0 .4.31.71.7.71h.78l.8 9.19c.06.66.4 1.38 1 1.87C2.2 13.9 3.2 16 4.96 16c1.46 0 2.5-1.5 2-2.91h3.82A2.17 2.17 0 0 0 12.76 16c1.16 0 2.11-.98 2.11-2.17 0-1.2-.95-2.18-2.11-2.18h-7.8c-.53 0-1-.33-1.2-.8l11.16-.68a.7.7 0 0 0 .64-.54l1.42-5.83a.71.71 0 0 0-.68-.89ZM4.95 14.57a.73.73 0 0 1-.72-.74c0-.41.33-.74.72-.74.4 0 .72.33.72.74 0 .4-.32.74-.72.74Zm7.8 0a.73.73 0 0 1-.71-.74c0-.41.32-.74.72-.74.4 0 .72.33.72.74 0 .4-.33.74-.72.74Zm1.58-5.8-10.75.65-.45-5.07h12.28l-1.08 4.42Z"/>
  </symbol>
  <symbol id="angle" viewBox="0 0 11 6">
    <path fill="currentColor" d="M5.5 6 10.26.75H.74L5.5 6Z"/>
  </symbol>
  <symbol id="cross" viewBox="0 0 19 19">
    <path fill="currentColor" d="m10.91 9.5 7.8-7.8A1 1 0 1 0 17.29.3L9.5 8.08 1.7.29A1 1 0 1 0 .3 1.71L8.08 9.5l-7.8 7.8a1 1 0 1 0 1.42 1.4l7.79-7.79 7.8 7.8a1 1 0 0 0 1.4-1.42L10.92 9.5Z"/>
  </symbol>
  <symbol id="loupe" viewBox="0 0 13 13">
    <path fill="currentColor" d="M8.68 1.49a5.1 5.1 0 1 0-.7 7.77c.05.2.14.38.3.54l2.88 2.89a1.07 1.07 0 1 0 1.52-1.52L9.8 8.27A1.07 1.07 0 0 0 9.26 8a5.1 5.1 0 0 0-.58-6.5Zm-.91 6.28A3.8 3.8 0 1 1 2.4 2.39a3.8 3.8 0 0 1 5.37 5.38Z"/>
  </symbol>
  <symbol id="menu" viewBox="0 0 24 24">
    <path fill="currentColor" d="M23.06 11.06H.94a.94.94 0 1 0 0 1.88h22.12a.94.94 0 1 0 0-1.88ZM23.06 3.56H.94a.94.94 0 1 0 0 1.88h22.12a.94.94 0 1 0 0-1.88ZM23.06 18.56H.94a.94.94 0 1 0 0 1.88h22.12a.94.94 0 1 0 0-1.88Z"/>
  </symbol>
  <symbol id="settings" viewBox="0 0 22 22">
    <g fill="currentColor" clip-path="url(#clip-settings)">
      <path d="M21.08 17.42h-2.44a3.2 3.2 0 0 0-3.06-2.3 3.2 3.2 0 0 0-3.06 2.3H.92a.92.92 0 0 0 0 1.83h11.6a3.2 3.2 0 0 0 3.06 2.3 3.2 3.2 0 0 0 3.06-2.3h2.44a.92.92 0 1 0 0-1.83Zm-5.5 2.29a1.38 1.38 0 1 1 0-2.76 1.38 1.38 0 0 1 0 2.76ZM21.08 2.75h-2.44a3.2 3.2 0 0 0-3.06-2.3 3.2 3.2 0 0 0-3.06 2.3H.92a.92.92 0 0 0 0 1.83h11.6a3.2 3.2 0 0 0 3.06 2.3 3.2 3.2 0 0 0 3.06-2.3h2.44a.92.92 0 1 0 0-1.83Zm-5.5 2.3a1.38 1.38 0 1 1 0-2.76 1.38 1.38 0 0 1 0 2.75ZM21.08 10.08H9.48A3.2 3.2 0 0 0 6.42 7.8a3.2 3.2 0 0 0-3.06 2.3H.92a.92.92 0 0 0 0 1.83h2.44a3.2 3.2 0 0 0 3.06 2.29 3.2 3.2 0 0 0 3.06-2.3h11.6a.92.92 0 1 0 0-1.83Zm-14.66 2.3a1.38 1.38 0 1 1 0-2.76 1.38 1.38 0 0 1 0 2.76Z"/>
    </g>
    <defs>
      <clipPath id="clip-settings">
        <path fill="none" d="M0 0h22v22H0z"/>
      </clipPath>
    </defs>
  </symbol>
</svg>