<svg xmlns="http://www.w3.org/2000/svg"><symbol id="settings" viewBox="0 0 22 22"><g fill="currentColor" clip-path="url(#clip-settings)"><path d="M21.08 17.42h-2.44a3.2 3.2 0 0 0-3.06-2.3 3.2 3.2 0 0 0-3.06 2.3H.92a.92.92 0 0 0 0 1.83h11.6a3.2 3.2 0 0 0 3.06 2.3 3.2 3.2 0 0 0 3.06-2.3h2.44a.92.92 0 1 0 0-1.83m-5.5 2.29a1.38 1.38 0 1 1 0-2.76 1.38 1.38 0 0 1 0 2.76m5.5-16.96h-2.44a3.2 3.2 0 0 0-3.06-2.3 3.2 3.2 0 0 0-3.06 2.3H.92a.92.92 0 0 0 0 1.83h11.6a3.2 3.2 0 0 0 3.06 2.3 3.2 3.2 0 0 0 3.06-2.3h2.44a.92.92 0 1 0 0-1.83m-5.5 2.3a1.38 1.38 0 1 1 0-2.76 1.38 1.38 0 0 1 0 2.75Zm5.5 5.03H9.48A3.2 3.2 0 0 0 6.42 7.8a3.2 3.2 0 0 0-3.06 2.3H.92a.92.92 0 0 0 0 1.83h2.44a3.2 3.2 0 0 0 3.06 2.29 3.2 3.2 0 0 0 3.06-2.3h11.6a.92.92 0 1 0 0-1.83Zm-14.66 2.3a1.38 1.38 0 1 1 0-2.76 1.38 1.38 0 0 1 0 2.76"/></g><defs><clipPath id="clip-settings"><path fill="none" d="M0 0h22v22H0z"/></clipPath></defs></symbol></svg>